# Blender v2.79 (sub 0) OBJ File: 'obstacles.blend'
# www.blender.org
mtllib goal.mtl
o Goal_Circle.001
v 0.000000 0.000000 -0.614226
v -0.434323 0.000000 -0.434323
v -0.614226 0.000000 0.000000
v -0.434323 0.000000 0.434323
v 0.000000 0.000000 0.614226
v 0.434323 0.000000 0.434323
v 0.614226 0.000000 -0.000000
v 0.434323 0.000000 -0.434323
v 0.000000 0.101732 -0.434889
v -0.307513 0.101732 -0.307513
v -0.434889 0.101732 0.000000
v -0.307513 0.101732 0.307513
v 0.000000 0.101732 0.434889
v 0.307513 0.101732 0.307513
v 0.434889 0.101732 0.000000
v 0.307513 0.101732 -0.307513
v 0.004423 0.202138 -0.031311
v -0.017717 0.202138 -0.022140
v -0.026888 0.202138 0.000000
v -0.017717 0.202138 0.022140
v 0.004423 0.202138 0.031311
v 0.026563 0.202138 0.022140
v 0.035734 0.202138 0.000000
v 0.026563 0.202138 -0.022140
v 0.004423 1.303758 -0.031311
v -0.017717 1.303758 -0.022140
v -0.026888 1.303758 0.000000
v -0.017717 1.303758 0.022140
v 0.004423 1.303758 0.031311
v 0.026563 1.303758 0.022140
v 0.035734 1.303758 0.000000
v 0.026563 1.303758 -0.022140
v 0.004423 1.818612 -0.031311
v -0.017717 1.818612 -0.022140
v -0.026888 1.818612 0.000000
v -0.017717 1.818612 0.022140
v 0.004423 1.818612 0.031311
v 0.026563 1.818612 0.022140
v 0.035734 1.818612 0.000000
v 0.026563 1.818612 -0.022140
v 0.000000 0.000000 -0.000000
v 0.004423 1.818612 0.000000
v 0.146869 1.361351 0.077273
v 0.156039 1.361351 0.055133
v 0.146869 1.876205 0.077273
v 0.156039 1.876205 0.055133
v 0.249737 1.371525 0.213782
v 0.258608 1.369201 0.191642
v 0.380239 1.869566 0.213782
v 0.389111 1.867241 0.191642
v 0.556404 1.261539 0.258818
v 0.564809 1.259337 0.237841
v 0.640119 1.788701 0.258818
v 0.648524 1.786498 0.237841
vt 0.554133 0.359920
vt 0.476240 0.326217
vt 0.475432 0.194975
vt 0.554363 0.163620
vt 0.415620 0.024763
vt 0.382045 0.102697
vt 0.251033 0.103706
vt 0.219603 0.024983
vt 0.081361 0.163626
vt 0.159138 0.197069
vt 0.159986 0.327836
vt 0.081361 0.359071
vt 0.219324 0.497522
vt 0.252950 0.419810
vt 0.383970 0.419294
vt 0.415112 0.498146
vt 0.324482 0.271699
vt 0.330975 0.265081
vt 0.330917 0.255834
vt 0.324350 0.249329
vt 0.315077 0.249372
vt 0.308519 0.255949
vt 0.308553 0.265262
vt 0.315192 0.271790
vt 0.833531 0.012459
vt 0.833530 0.449280
vt 0.824027 0.449280
vt 0.824028 0.012459
vt 0.814525 0.012459
vt 0.814525 0.449280
vt 0.805023 0.449280
vt 0.805021 0.012459
vt 0.795518 0.012459
vt 0.795520 0.449280
vt 0.786018 0.449280
vt 0.786015 0.012459
vt 0.862041 0.012459
vt 0.862037 0.449280
vt 0.852535 0.449280
vt 0.852538 0.012459
vt 0.843035 0.012459
vt 0.843032 0.449280
vt 0.852534 0.653433
vt 0.843031 0.653433
vt 0.833530 0.653433
vt 0.824028 0.653433
vt 0.814526 0.653433
vt 0.805023 0.653433
vt 0.795521 0.653433
vt 0.786019 0.653433
vt 0.862036 0.653433
vt 0.728527 0.684678
vt 0.738489 0.685224
vt 0.736281 0.737971
vt 0.728157 0.737334
vt 0.024248 0.651500
vt 0.156062 0.519686
vt 0.249269 0.744707
vt 0.024248 0.837914
vt 0.342476 0.519686
vt 0.474290 0.651500
vt 0.342476 0.969728
vt 0.156062 0.969728
vt 0.474290 0.837914
vt 0.590743 0.578658
vt 0.602213 0.573907
vt 0.606965 0.585378
vt 0.597462 0.585378
vt 0.613684 0.569156
vt 0.613684 0.578658
vt 0.590743 0.569156
vt 0.597462 0.562436
vt 0.606965 0.562436
vt 0.961117 0.737299
vt 0.927309 0.816243
vt 0.740855 0.829654
vt 0.975828 0.670299
vt 0.986711 0.672259
vt 0.972689 0.737365
vt 0.515898 0.670299
vt 0.535987 0.726561
vt 0.537730 0.802494
vt 0.731834 0.830650
vt 0.741786 0.926019
vt 0.519908 0.938116
vt 0.937918 0.815976
vt 0.946408 0.971863
vt 0.944415 0.980564
vt 0.748428 0.918785
vt 0.957269 0.973257
vn 0.6911 -0.2112 -0.6911
vn 0.2827 0.9166 -0.2828
vn 0.4002 0.9164 0.0000
vn 0.9774 -0.2112 0.0000
vn 0.6911 -0.2112 0.6911
vn 0.2827 0.9166 0.2828
vn -0.0002 0.9168 0.3992
vn 0.0000 -0.2112 0.9774
vn -0.6911 -0.2112 0.6911
vn -0.2819 0.9171 0.2817
vn -0.3983 0.9172 0.0000
vn -0.9774 -0.2112 0.0000
vn -0.6911 -0.2112 -0.6911
vn -0.2819 0.9171 -0.2817
vn -0.0002 0.9168 -0.3992
vn 0.0000 -0.2112 -0.9774
vn 0.0007 0.7004 -0.7137
vn 0.5056 0.6995 -0.5049
vn 0.7149 0.6992 0.0000
vn 0.5056 0.6995 0.5049
vn 0.0007 0.7004 0.7137
vn -0.5037 0.7012 0.5044
vn -0.7126 0.7016 0.0000
vn -0.5037 0.7012 -0.5044
vn 0.4818 -0.2566 0.8379
vn 0.0000 0.0000 1.0000
vn -0.7071 0.0000 0.7071
vn -1.0000 0.0000 0.0000
vn -0.7071 0.0000 -0.7071
vn 0.0000 0.0000 -1.0000
vn 0.7071 0.0000 -0.7071
vn 0.9377 -0.2445 -0.2466
vn 0.5490 0.6302 -0.5490
vn 0.3486 0.7677 -0.5377
vn -0.1654 0.7755 0.6093
vn 0.0000 0.6302 0.7764
vn -0.5490 0.6302 0.5490
vn -0.7764 0.6302 0.0000
vn -0.5490 0.6302 -0.5490
vn 0.0000 0.6302 -0.7764
vn -0.4549 0.7616 0.4615
vn 0.2407 0.7170 -0.6541
vn 0.0000 -1.0000 0.0000
vn 0.0000 1.0000 0.0000
vn -0.2422 -0.6922 0.6799
vn -0.4386 -0.5065 0.7423
vn -0.1595 0.7372 0.6565
vn 0.5369 -0.5914 -0.6016
vn 0.1545 -0.7971 -0.5837
vn 0.3803 0.7237 -0.5759
vn 0.8251 0.3885 -0.4102
vn 0.5613 -0.7252 -0.3987
vn 0.2360 -0.6853 0.6889
vn 0.5165 0.4770 0.7111
usemtl Goal
s 1
f 8/1/1 16/2/2 15/3/3 7/4/4
f 6/5/5 14/6/6 13/7/7 5/8/8
f 4/9/9 12/10/10 11/11/11 3/12/12
f 2/13/13 10/14/14 9/15/15 1/16/16
f 1/16/16 9/15/15 16/2/2 8/1/1
f 7/4/4 15/3/3 14/6/6 6/5/5
f 5/8/8 13/7/7 12/10/10 4/9/9
f 3/12/12 11/11/11 10/14/14 2/13/13
f 9/15/15 17/17/17 24/18/18 16/2/2
f 15/3/3 23/19/19 22/20/20 14/6/6
f 13/7/7 21/21/21 20/22/22 12/10/10
f 11/11/11 19/23/23 18/24/24 10/14/14
f 16/2/2 24/18/18 23/19/19 15/3/3
f 14/6/6 22/20/20 21/21/21 13/7/7
f 12/10/10 20/22/22 19/23/23 11/11/11
f 10/14/14 18/24/24 17/17/17 9/15/15
f 22/25/20 30/26/25 29/27/26 21/28/21
f 20/29/22 28/30/27 27/31/28 19/32/23
f 18/33/24 26/34/29 25/35/30 17/36/17
f 17/37/17 25/38/30 32/39/31 24/40/18
f 23/41/19 31/42/32 30/26/25 22/25/20
f 21/28/21 29/27/26 28/30/27 20/29/22
f 19/32/23 27/31/28 26/34/29 18/33/24
f 24/40/18 32/39/31 31/42/32 23/41/19
f 31/42/32 32/39/31 40/43/33 39/44/34
f 29/27/26 30/26/25 38/45/35 37/46/36
f 27/31/28 28/30/27 36/47/37 35/48/38
f 25/35/30 26/34/29 34/49/39 33/50/40
f 32/39/31 25/38/30 33/51/40 40/43/33
f 39/52/34 38/53/35 45/54/41 46/55/42
f 28/30/27 29/27/26 37/46/36 36/47/37
f 26/34/29 27/31/28 35/48/38 34/49/39
f 3/56/12 2/57/13 41/58/43 4/59/9
f 2/57/13 1/60/16 8/61/1 41/58/43
f 4/59/9 41/58/43 6/62/5 5/63/8
f 41/58/43 8/61/1 7/64/4 6/62/5
f 35/65/38 42/66/44 33/67/40 34/68/39
f 42/66/44 39/69/34 40/70/33 33/67/40
f 36/71/37 37/72/36 42/66/44 35/65/38
f 37/72/36 38/73/35 39/69/34 42/66/44
f 45/54/41 43/74/45 47/75/46 49/76/47
f 38/53/35 30/77/25 43/74/45 45/54/41
f 30/77/25 31/78/32 44/79/48 43/74/45
f 31/80/32 39/52/34 46/55/42 44/81/48
f 48/82/49 50/83/50 54/84/51 52/85/52
f 46/55/42 45/54/41 49/76/47 50/83/50
f 44/81/48 46/55/42 50/83/50 48/82/49
f 43/74/45 44/79/48 48/86/49 47/75/46
f 51/87/53 52/88/52 54/84/51 53/89/54
f 47/75/46 48/86/49 52/90/52 51/87/53
f 49/76/47 47/75/46 51/87/53 53/89/54
f 50/83/50 49/76/47 53/89/54 54/84/51
