# Blender v2.79 (sub 0) OBJ File: 'Arrow.blend'
# www.blender.org
mtllib Arrow.mtl
o Cube_Cube.001
v 0.117102 -0.110357 0.357976
v 0.117102 0.108631 0.357976
v 0.117102 -0.110357 -0.155128
v 0.117102 0.108631 -0.155128
v 0.117102 -0.110357 -0.111402
v 0.117102 0.108631 -0.111402
v 0.269689 -0.110357 -0.155128
v 0.269689 0.108631 -0.155128
v 0.269689 -0.110357 -0.111402
v 0.269689 0.108631 -0.111402
v -0.117102 -0.110357 0.357976
v -0.117102 0.108631 0.357976
v -0.117102 -0.110357 -0.155128
v -0.117102 0.108631 -0.155128
v 0.000000 -0.110357 -0.155128
v 0.000000 0.108631 -0.155128
v 0.000000 -0.110357 0.357976
v 0.000000 0.108631 0.357976
v -0.117102 -0.110357 -0.111402
v -0.117102 0.108631 -0.111402
v 0.000000 0.108631 -0.111402
v 0.000000 -0.110357 -0.111402
v -0.269689 -0.110357 -0.155128
v -0.269689 0.108631 -0.155128
v -0.269689 -0.110357 -0.111402
v -0.269689 0.108631 -0.111402
v 0.000000 -0.110357 -0.462802
v 0.000000 0.108631 -0.462802
vt 0.655508 0.223107
vt 0.655508 0.054566
vt 0.970398 0.054566
vt 0.970398 0.223107
vt 0.504417 0.054566
vt 0.504417 0.223107
vt 0.143166 0.223107
vt 0.143166 0.054566
vt 0.707143 0.564726
vt 0.805364 0.564726
vt 0.805364 0.958426
vt 0.707143 0.958426
vt 0.317195 0.671529
vt 0.218973 0.671495
vt 0.219109 0.277795
vt 0.317331 0.277829
vt 0.053040 0.223107
vt 0.053040 0.054566
vt 0.317182 0.708205
vt 0.218961 0.708171
vt 0.707143 0.528050
vt 0.805364 0.528050
vt 0.621854 0.054566
vt 0.621854 0.223107
vt 0.445168 0.708249
vt 0.218872 0.966238
vt 0.933350 0.528050
vt 0.933350 0.564726
vt 0.445180 0.671573
vt 0.707143 0.269983
vt 0.655508 0.223107
vt 0.655508 0.054566
vt 0.504417 0.054566
vt 0.143166 0.054566
vt 0.143166 0.223107
vt 0.504417 0.223107
vt 0.805364 0.958426
vt 0.805364 0.564726
vt 0.317195 0.671529
vt 0.317331 0.277829
vt 0.317182 0.708205
vt 0.805364 0.528050
vt 0.621854 0.223107
vt 0.621854 0.054566
vt 0.445168 0.708249
vt 0.933350 0.564726
vt 0.933350 0.528050
vt 0.445180 0.671573
vn 0.7520 0.0000 -0.6592
vn 1.0000 0.0000 0.0000
vn 0.0000 -1.0000 0.0000
vn 0.0000 1.0000 0.0000
vn 0.0000 0.0000 1.0000
vn -0.7520 0.0000 -0.6592
vn -1.0000 0.0000 0.0000
usemtl Arrow
s off
f 8/1/1 7/2/1 27/3/1 28/4/1
f 5/5/2 6/6/2 2/7/2 1/8/2
f 22/9/3 5/10/3 1/11/3 17/12/3
f 6/13/4 21/14/4 18/15/4 2/16/4
f 1/8/5 2/7/5 18/17/5 17/18/5
f 4/19/4 16/20/4 21/14/4 6/13/4
f 15/21/3 3/22/3 5/10/3 22/9/3
f 6/6/5 5/5/5 9/23/5 10/24/5
f 7/2/2 8/1/2 10/24/2 9/23/2
f 4/19/4 8/25/4 28/26/4
f 5/10/3 3/22/3 7/27/3 9/28/3
f 4/19/4 6/13/4 10/29/4 8/25/4
f 3/22/3 15/21/3 27/30/3
f 7/27/3 3/22/3 27/30/3
f 16/20/4 4/19/4 28/26/4
f 24/31/6 28/4/6 27/3/6 23/32/6
f 19/33/7 11/34/7 12/35/7 20/36/7
f 22/9/3 17/12/3 11/37/3 19/38/3
f 20/39/4 12/40/4 18/15/4 21/14/4
f 11/34/5 17/18/5 18/17/5 12/35/5
f 14/41/4 20/39/4 21/14/4 16/20/4
f 15/21/3 22/9/3 19/38/3 13/42/3
f 20/36/5 26/43/5 25/44/5 19/33/5
f 23/32/7 25/44/7 26/43/7 24/31/7
f 14/41/4 28/26/4 24/45/4
f 19/38/3 25/46/3 23/47/3 13/42/3
f 14/41/4 24/45/4 26/48/4 20/39/4
f 13/42/3 27/30/3 15/21/3
f 23/47/3 27/30/3 13/42/3
f 16/20/4 28/26/4 14/41/4
