# Blender v2.79 (sub 0) OBJ File: 'obstacles.blend'
# www.blender.org
mtllib obstacle stone.mtl
o Obstacle_stone_Cube.025
v -1.364348 0.500000 0.000000
v 0.000000 0.500000 -1.000000
v 1.000000 0.500000 0.000000
v -0.015915 0.554049 0.991696
v 0.000000 0.000000 0.000000
v 0.233095 1.362198 -0.165395
v -1.300578 0.000000 0.000000
v -0.750000 0.500000 0.750000
v -0.704148 1.113516 0.036641
v -0.581784 0.301987 -0.785216
v 0.000000 0.000000 -0.750000
v 0.106082 1.201376 -0.743361
v 0.750000 0.500000 -0.750000
v 1.318125 0.000000 0.000000
v 0.746298 1.011623 -0.001272
v 0.523205 0.469746 0.474613
v 0.000000 0.000000 0.750000
v 0.104609 1.199284 0.608212
v -0.555556 0.000000 0.555556
v -0.555556 0.777778 0.555556
v -1.106133 0.000000 -0.555556
v -0.523390 0.998293 -0.521594
v 0.555556 0.000000 0.555556
v 0.521692 0.927095 0.507702
v 1.093634 0.000000 -0.555556
v 0.852090 1.033147 -0.602133
vt 0.142871 0.401021
vt 0.000113 0.422256
vt 0.066823 0.105448
vt 0.183685 0.234005
vt 0.243294 0.263803
vt 0.268002 0.349973
vt 0.312095 0.423921
vt 0.276608 0.530522
vt 0.115799 0.602536
vt 0.420890 0.517694
vt 0.468843 0.688107
vt 0.404366 0.405078
vt 0.480567 0.358289
vt 0.555679 0.431251
vt 0.756318 0.412100
vt 0.575699 0.239155
vt 0.756318 0.177924
vt 0.458098 0.281751
vt 0.399031 0.223988
vt 0.437268 0.140859
vt 0.470387 0.000113
vt 0.294235 0.164098
vt 0.257106 0.006236
vt 0.340289 0.255552
vt 0.270246 0.844110
vt 0.000113 0.796625
vt 0.060784 0.688334
vt 0.297629 0.688334
vt 0.517679 0.768651
vt 0.544022 0.892237
vt 0.365351 0.979784
vt 0.242862 0.999887
vt 0.134572 0.939216
vt 0.389959 0.333125
vn -0.9452 0.3254 0.0261
vn -0.7646 -0.6413 0.0633
vn -0.2959 -0.8048 0.5144
vn -0.5591 0.1264 0.8194
vn -0.4401 0.6921 0.5721
vn -0.5551 0.8316 0.0164
vn -0.5022 0.6450 -0.5759
vn -0.4418 0.0033 -0.8971
vn -0.5813 -0.5629 -0.5875
vn -0.0581 0.0116 -0.9982
vn 0.0181 -0.8044 -0.5938
vn -0.0242 0.7473 -0.6641
vn 0.7084 0.5379 -0.4570
vn 0.5951 0.0881 -0.7987
vn 0.6796 -0.5093 -0.5279
vn 0.9027 0.3334 0.2720
vn 0.8879 -0.4104 0.2078
vn 0.7842 0.5857 0.2048
vn 0.6672 0.4326 0.6064
vn 0.6425 0.1409 0.7532
vn 0.4453 -0.6511 0.6146
vn 0.0820 0.1056 0.9910
vn 0.1040 -0.7513 0.6517
vn 0.1226 0.7715 0.6243
vn 0.0000 -1.0000 0.0000
vn 0.1063 0.9933 0.0443
usemtl Obstacle_stone
s 1
f 1/1/1 7/2/2 19/3/3 8/4/4
f 1/1/1 8/4/4 20/5/5 9/6/6
f 1/1/1 9/6/6 22/7/7 10/8/8
f 1/1/1 10/8/8 21/9/9 7/2/2
f 2/10/10 11/11/11 21/9/9 10/8/8
f 2/10/10 10/8/8 22/7/7 12/12/12
f 2/10/10 12/12/12 26/13/13 13/14/14
f 2/10/10 13/14/14 25/15/15 11/11/11
f 3/16/16 14/17/17 25/15/15 13/14/14
f 3/16/16 13/14/14 26/13/13 15/18/18
f 3/16/16 15/18/18 24/19/19 16/20/20
f 3/16/16 16/20/20 23/21/21 14/17/17
f 4/22/22 17/23/23 23/21/21 16/20/20
f 4/22/22 16/20/20 24/19/19 18/24/24
f 4/22/22 18/24/24 20/5/5 8/4/4
f 4/22/22 8/4/4 19/3/3 17/23/23
f 5/25/25 7/26/2 21/27/9 11/28/11
f 5/25/25 11/28/11 25/29/15 14/30/17
f 5/25/25 14/30/17 23/31/21 17/32/23
f 5/25/25 17/32/23 19/33/3 7/26/2
f 6/34/26 15/18/18 26/13/13 12/12/12
f 6/34/26 12/12/12 22/7/7 9/6/6
f 6/34/26 9/6/6 20/5/5 18/24/24
f 6/34/26 18/24/24 24/19/19 15/18/18
