# Blender v2.79 (sub 0) OBJ File: 'obstacles1.blend'
# www.blender.org
mtllib obstacle house new.mtl
o Obstacle_house_Cube.022
v -1.759320 0.000000 1.050069
v -1.759320 2.069801 1.050069
v -1.759320 0.000000 -1.050069
v -1.759320 2.069801 -1.050069
v 1.741779 0.000000 1.050069
v 1.741779 2.069801 1.050069
v 1.741779 0.000000 -1.050069
v 1.741779 2.069801 -1.050069
v -1.000762 0.000000 -1.050069
v -1.000762 2.069801 -1.050069
v -1.000762 0.000000 1.050069
v -1.000762 2.069801 1.050069
v -0.095282 2.069801 -1.050069
v -0.095282 0.000000 1.050069
v -0.095282 0.000000 -1.050069
v -0.095282 2.069801 1.050069
v 0.968879 2.069801 -1.050069
v 0.968879 0.000000 1.050069
v 0.968878 0.000000 -1.050069
v 0.968878 2.069801 1.050069
v -1.759320 0.261209 1.050069
v -1.759320 0.261209 -1.050069
v 1.741779 0.261209 -1.050069
v 1.741779 0.261209 1.050069
v -1.000762 1.175442 1.050069
v -1.000762 1.175442 -1.050069
v -0.095282 1.655841 1.050069
v -0.095282 1.655841 -1.050069
v 0.968878 1.175442 1.050069
v 0.968879 1.175442 -1.050069
v -1.759320 2.333883 1.050069
v -1.759320 2.333883 -1.050069
v 1.741779 2.333883 1.050069
v 1.741779 2.333883 -1.050069
v -1.000762 2.333883 -1.050069
v -1.000762 2.333883 1.050069
v -0.095282 2.333883 -1.050069
v -0.095282 2.333883 1.050069
v 0.968879 2.333883 -1.050069
v 0.968878 2.333883 1.050069
v -0.335511 3.484865 0.186040
v -0.335511 3.484865 -0.186040
v 0.107861 3.600972 -0.143410
v 0.284775 3.484865 -0.186040
v 0.284775 3.484865 0.186040
v -0.161138 3.600972 0.143410
v -0.161138 3.600972 -0.143410
v -0.040695 3.670678 0.086972
v -0.040695 3.670678 -0.086972
v 0.107861 3.600972 0.143410
v -1.759320 2.069801 1.050069
v -1.759320 2.069801 -1.050069
v 1.741779 2.069801 1.050069
v 1.741779 2.069801 -1.050069
v -1.000762 2.069801 -1.050069
v -1.000762 2.069801 1.050069
v -0.095282 2.069801 -1.050069
v -0.095282 2.069801 1.050069
v 0.968879 2.069801 -1.050069
v 0.968878 2.069801 1.050069
v -1.759320 2.333883 1.050069
v -1.759320 2.333883 -1.050069
v 1.741779 2.333883 1.050069
v 1.741779 2.333883 -1.050069
v -1.000762 2.333883 -1.050069
v -1.000762 2.333883 1.050069
v -0.095282 2.333883 -1.050069
v -0.095282 2.333883 1.050069
v 0.968879 2.333883 -1.050069
v 0.968878 2.333883 1.050069
v -2.059465 2.046898 1.232210
v -2.059465 2.046898 -1.232210
v 1.141957 2.046898 -1.232210
v 2.048921 2.046898 -1.232210
v 2.048921 2.046898 1.232210
v -1.169330 2.046898 1.232210
v -1.169330 2.046898 -1.232210
v -0.106789 2.046898 1.232210
v -0.106789 2.046898 -1.232210
v -0.106789 2.356786 -1.232210
v 1.141956 2.046898 1.232210
v 1.141956 2.356786 1.232210
v 2.048921 2.356786 1.232210
v -2.059465 2.356786 1.232210
v -2.059465 2.356786 -1.232210
v 1.141957 2.356786 -1.232210
v 2.048921 2.356786 -1.232210
v -1.169330 2.356786 1.232210
v -1.169330 2.356786 -1.232210
v -0.106789 2.356786 1.232210
vt 0.198425 0.475472
vt 0.056558 0.475472
vt 0.056558 0.310736
vt 0.198425 0.310736
vt 0.126712 0.096735
vt 0.056558 0.096735
vt 0.056558 0.036108
vt 0.198425 0.036108
vt 0.198424 0.914836
vt 0.056558 0.914836
vt 0.056558 0.750100
vt 0.198425 0.750100
vt 0.126712 0.534974
vt 0.056558 0.534974
vt 0.432915 0.310736
vt 0.493542 0.310736
vt 0.493542 0.475472
vt 0.432915 0.475472
vt 0.218914 0.310736
vt 0.278416 0.310736
vt 0.278416 0.475472
vt 0.218914 0.475472
vt 0.089029 0.606000
vt 0.056558 0.606000
vt 0.056558 0.251234
vt 0.126712 0.251234
vt 0.126712 0.689473
vt 0.056558 0.689473
vt 0.349442 0.310736
vt 0.349442 0.475472
vt 0.056558 0.180208
vt 0.089029 0.180208
vt 0.218914 0.180208
vt 0.218914 0.096735
vt 0.218914 0.750100
vt 0.218914 0.689473
vt 0.218914 0.251234
vt 0.218914 0.606000
vt 0.218914 0.534974
vt 0.218914 0.914836
vt 0.218914 0.036108
vt 0.662403 0.296701
vt 0.575633 0.287203
vt 0.660805 0.181761
vt 0.669324 0.177370
vt 0.512594 0.273564
vt 0.512628 0.077882
vt 0.646659 0.158731
vt 0.646200 0.186973
vt 0.765336 0.283506
vt 0.679286 0.181690
vt 0.575822 0.062240
vt 0.660232 0.163363
vt 0.668589 0.167566
vt 0.678695 0.163101
vt 0.693091 0.186354
vt 0.693543 0.157854
vt 0.765515 0.056930
vt 0.830211 0.070627
vt 0.830210 0.267793
vt 0.660157 0.048949
vt 0.253605 0.923961
vt 0.346376 0.832695
vt 0.352435 0.851544
vt 0.258944 0.945482
vt 0.875551 0.382392
vt 0.799416 0.456192
vt 0.785892 0.443838
vt 0.875201 0.357255
vt 0.734416 0.518736
vt 0.682146 0.556239
vt 0.667452 0.551201
vt 0.712183 0.515989
vt 0.828588 0.333957
vt 0.883885 0.280346
vt 0.918593 0.272175
vt 0.853705 0.335085
vt 0.930847 0.328785
vt 0.940088 0.294346
vt 0.387894 0.778836
vt 0.463343 0.704972
vt 0.476856 0.717256
vt 0.389830 0.801776
vt 0.580562 0.604942
vt 0.648634 0.523819
vt 0.655839 0.542528
vt 0.595256 0.609980
vt 0.688557 0.470691
vt 0.752505 0.407752
vt 0.764418 0.421585
vt 0.690910 0.493212
vt 0.614075 0.637361
vt 0.574151 0.690488
vt 0.571799 0.667969
vt 0.606869 0.618653
vt 0.363671 0.860369
vt 0.276406 0.962103
vt 0.550525 0.645192
vt 0.411308 0.824552
vt 0.498311 0.739576
vt 0.528293 0.642445
vt 0.510202 0.753419
vt 0.380486 0.865837
vt 0.303444 0.966776
vt 0.433947 0.827021
vn -0.7071 0.0000 0.7071
vn -0.7071 0.0000 -0.7071
vn 0.0000 0.0000 -1.0000
vn 0.7071 0.0000 -0.7071
vn 0.7071 0.0000 0.7071
vn 0.0000 0.0000 1.0000
vn 0.0000 -0.7071 -0.7071
vn 0.5773 -0.5773 -0.5773
vn 0.5773 -0.5773 0.5773
vn 0.0000 -0.7071 0.7071
vn -0.5773 -0.5773 -0.5773
vn -0.5773 -0.5773 0.5773
vn 0.0005 0.5822 -0.8130
vn -0.0248 0.6038 -0.7967
vn -0.2968 0.8219 -0.4861
vn -0.0356 0.9433 -0.3300
vn -0.4435 0.8154 -0.3721
vn -0.4435 0.8154 0.3721
vn -0.3921 0.8203 0.4163
vn -0.3921 0.8203 -0.4163
vn 0.0248 0.6041 -0.7965
vn 0.2834 0.8338 -0.4738
vn -0.0248 0.6038 0.7967
vn -0.2968 0.8219 0.4861
vn -0.0356 0.9433 0.3300
vn 0.2834 0.8338 0.4738
vn 0.3863 0.8230 -0.4165
vn 0.3863 0.8230 0.4165
vn 0.0248 0.6041 0.7965
vn 0.4396 0.8197 0.3672
vn 0.4396 0.8197 -0.3672
vn 0.0005 0.5822 0.8130
vn -0.0333 0.9970 0.0692
vn -0.0333 0.9970 -0.0692
vn 0.5665 0.5948 0.5703
vn 0.5665 0.5948 -0.5703
vn 0.0000 -0.9922 0.1248
vn 0.0000 -0.7499 -0.6615
vn 0.0343 -0.9970 0.0689
vn -0.5664 -0.5951 -0.5701
vn 0.0000 0.9922 0.1248
vn 0.0000 0.7499 -0.6615
vn -0.0333 -0.9970 0.0692
vn 0.5665 -0.5948 -0.5703
vn 0.0000 0.9922 -0.1248
vn 0.0000 0.7499 0.6615
vn 0.0343 0.9970 -0.0689
vn 0.0343 0.9970 0.0689
vn -0.5664 0.5951 -0.5701
vn -0.5664 0.5951 0.5701
vn 0.0343 -0.9970 -0.0689
vn 0.0000 -0.9922 -0.1248
vn 0.0000 -0.7499 0.6615
vn -0.5664 -0.5951 0.5701
vn 0.5665 -0.5948 0.5703
vn -0.0333 -0.9970 -0.0692
usemtl Obstacle_house
s 1
f 21/1/1 2/2/1 4/3/2 22/4/2
f 30/5/3 17/6/3 8/7/4 23/8/4
f 23/9/4 8/10/4 6/11/5 24/12/5
f 25/13/6 12/14/6 2/2/1 21/1/1
f 19/15/7 7/16/8 5/17/9 18/18/10
f 3/19/11 9/20/7 11/21/10 1/22/12
f 27/23/6 16/24/6 12/14/6 25/13/6
f 22/4/2 4/3/2 10/25/3 26/26/3
f 29/27/6 20/28/6 16/24/6 27/23/6
f 9/20/7 15/29/7 14/30/10 11/21/10
f 26/26/3 10/25/3 13/31/3 28/32/3
f 24/12/5 6/11/5 20/28/6 29/27/6
f 15/29/7 19/15/7 18/18/10 14/30/10
f 28/32/3 13/31/3 17/6/3 30/5/3
f 15/33/7 28/32/3 30/5/3 19/34/7
f 5/35/9 24/12/5 29/27/6 18/36/10
f 9/37/7 26/26/3 28/32/3 15/33/7
f 18/36/10 29/27/6 27/23/6 14/38/10
f 3/19/11 22/4/2 26/26/3 9/37/7
f 14/38/10 27/23/6 25/13/6 11/39/10
f 11/39/10 25/13/6 21/1/1 1/22/12
f 7/40/8 23/9/4 24/12/5 5/35/9
f 19/34/7 30/5/3 23/8/4 7/41/8
f 1/22/12 21/1/1 22/4/2 3/19/11
f 37/42/13 35/43/14 47/44/15 49/45/16
f 32/46/17 31/47/18 41/48/19 42/49/20
f 39/50/21 37/42/13 49/45/16 43/51/22
f 31/47/18 36/52/23 46/53/24 41/48/19
f 47/44/15 42/49/20 41/48/19 46/53/24
f 49/45/16 47/44/15 46/53/24 48/54/25
f 43/51/22 49/45/16 48/54/25 50/55/26
f 44/56/27 43/51/22 50/55/26 45/57/28
f 35/43/14 32/46/17 42/49/20 47/44/15
f 40/58/29 33/59/30 45/57/28 50/55/26
f 34/60/31 39/50/21 43/51/22 44/56/27
f 38/61/32 40/58/29 50/55/26 48/54/25
f 36/52/23 38/61/32 48/54/25 46/53/24
f 33/59/30 34/60/31 44/56/27 45/57/28
f 64/62/33 63/63/34 83/64/35 87/65/36
f 59/66/37 57/67/37 79/68/38 73/69/38
f 55/70/37 52/71/39 72/72/40 77/73/38
f 69/74/41 64/75/33 87/76/36 86/77/42
f 57/67/37 55/70/37 77/73/38 79/68/38
f 54/78/43 59/66/37 73/69/38 74/79/44
f 70/80/45 68/81/45 90/82/46 82/83/46
f 61/84/47 62/85/48 85/86/49 84/87/50
f 65/88/41 67/89/41 80/90/42 89/91/42
f 51/92/51 56/93/52 76/94/53 71/95/54
f 75/96/55 74/97/44 87/65/36 83/64/35
f 71/95/54 76/94/53 88/98/46 84/87/50
f 73/69/38 79/68/38 80/90/42 86/77/42
f 81/99/53 75/96/55 83/64/35 82/83/46
f 76/94/53 78/100/53 90/82/46 88/98/46
f 74/79/44 73/69/38 86/77/42 87/76/36
f 72/72/40 71/95/54 84/87/50 85/86/49
f 78/100/53 81/99/53 82/83/46 90/82/46
f 77/73/38 72/72/40 85/86/49 89/91/42
f 79/68/38 77/73/38 89/91/42 80/90/42
f 67/89/41 69/74/41 86/77/42 80/90/42
f 66/101/45 61/84/47 84/87/50 88/98/46
f 56/93/52 58/102/52 78/100/53 76/94/53
f 63/63/34 70/80/45 82/83/46 83/64/35
f 53/103/56 54/104/43 74/97/44 75/96/55
f 62/85/48 65/88/41 89/91/42 85/86/49
f 58/102/52 60/105/52 81/99/53 78/100/53
f 60/105/52 53/103/56 75/96/55 81/99/53
f 68/81/45 66/101/45 88/98/46 90/82/46
f 52/71/39 51/92/51 71/95/54 72/72/40
