# Blender v2.79 (sub 0) OBJ File: 'obstacles.blend'
# www.blender.org
mtllib obstacle house 1.mtl
o Obstacle_house_1_Cube.005
v -0.658819 2.760887 -0.649277
v -0.658819 2.760887 0.649277
v 0.658819 2.760887 0.649277
v 0.658819 2.760887 -0.649277
v 0.000000 2.760887 -0.649277
v 0.000000 2.760887 0.649277
v 0.000000 3.415260 0.000000
v -1.845998 2.213304 -1.221431
v -1.845998 2.213304 1.221431
v 1.707647 2.213304 1.221431
v 1.707647 2.213304 -1.221431
v 0.000000 2.213304 -1.221431
v 0.000000 2.213304 1.221431
v -0.658819 2.760887 -0.649277
v -0.658819 2.760887 0.649277
v 0.658819 2.760887 0.649277
v 0.658819 2.760887 -0.649277
v 0.000000 2.760887 -0.649277
v 0.000000 2.760887 0.649277
v -1.845998 2.213304 -1.221431
v -1.845998 2.213304 1.221431
v -0.886477 1.703787 0.873638
v -0.886477 1.703787 -0.873638
v 0.886477 1.703787 0.873638
v 0.886477 1.703787 -0.873638
v 1.707647 2.213304 1.221431
v 1.707647 2.213304 -1.221431
v 0.000000 2.213304 -1.221431
v 0.000000 2.213304 1.221431
v -0.886477 1.703787 0.873638
v -0.886477 1.703787 -0.873638
v 0.886477 1.703787 0.873638
v 0.886477 1.703787 -0.873638
v 0.000000 1.154885 -0.873638
v 0.000000 1.154885 0.873638
v 0.000000 2.213304 -1.221431
v 0.000000 2.213304 1.221431
v -0.886477 0.000000 0.873638
v -0.886477 1.703787 0.873638
v -0.886477 0.000000 -0.873638
v -0.886477 1.703787 -0.873638
v 0.886477 0.000000 0.873638
v 0.886477 1.703787 0.873638
v 0.886477 0.000000 -0.873638
v 0.886477 1.703787 -0.873638
v 0.000000 0.000000 -0.873638
v 0.000000 1.154885 -0.873638
v 0.000000 0.000000 0.873638
v 0.000000 1.154885 0.873638
vt 0.764910 0.648123
vt 0.764910 0.467387
vt 0.861132 0.557755
vt 0.957355 0.467387
vt 0.957355 0.648123
vt 0.861132 0.662043
vt 0.861132 0.453467
vt 0.487305 0.396591
vt 0.491305 0.077965
vt 0.652441 0.159596
vt 0.647591 0.314725
vt 0.732580 0.056811
vt 0.954162 0.079702
vt 0.810882 0.161680
vt 0.731392 0.159322
vt 0.954166 0.396072
vt 0.728173 0.420310
vt 0.728258 0.316425
vt 0.808031 0.315931
vt 0.349858 0.852130
vt 0.567229 0.852130
vt 0.610497 0.972356
vt 0.306590 0.972356
vt 0.351243 0.644916
vt 0.568481 0.652550
vt 0.606975 0.789142
vt 0.303256 0.778469
vt 0.674117 0.569523
vt 0.673043 0.769330
vt 0.244044 0.769331
vt 0.251697 0.554678
vt 0.881107 0.854617
vt 0.939413 0.970488
vt 0.805054 0.970488
vt 0.769145 0.818812
vt 0.710840 0.702942
vt 0.845199 0.702942
vt 0.751606 0.847217
vt 0.898647 0.826212
vt 0.212175 0.438151
vt 0.000213 0.438151
vt 0.000213 0.220780
vt 0.212175 0.220780
vt 0.212175 0.110496
vt 0.068500 0.110496
vt 0.000213 0.000213
vt 0.212175 0.000213
vt 0.212175 0.876089
vt 0.000213 0.876089
vt 0.000213 0.658718
vt 0.212175 0.658718
vt 0.212175 0.548434
vt 0.068500 0.548434
vt 0.322458 0.220780
vt 0.432741 0.220780
vt 0.432741 0.438151
vt 0.322458 0.438151
vn -0.4091 0.8163 -0.4076
vn -0.4091 0.8163 0.4076
vn 0.0000 1.0000 0.0000
vn 0.4091 0.8163 0.4076
vn 0.4091 0.8163 -0.4076
vn 0.0000 0.7043 -0.7099
vn 0.0000 0.7043 0.7099
vn -0.3019 0.9191 -0.2532
vn -0.3019 0.9191 0.2532
vn -0.2009 0.8816 0.4270
vn -0.2009 0.8816 -0.4270
vn 0.0000 0.7224 0.6914
vn 0.3215 0.9054 0.2772
vn 0.2284 0.8777 0.4212
vn 0.3215 0.9054 -0.2772
vn 0.0000 0.7224 -0.6914
vn 0.2284 0.8777 -0.4212
vn 0.3087 -0.8230 0.4768
vn 0.3087 -0.8230 -0.4768
vn 0.3951 -0.8590 -0.3255
vn 0.3951 -0.8590 0.3255
vn -0.2652 -0.8320 -0.4873
vn -0.2652 -0.8320 0.4873
vn -0.3644 -0.8847 0.2907
vn -0.3644 -0.8847 -0.2907
vn 0.0000 -0.5638 0.8259
vn 0.0000 -0.5638 -0.8259
vn 0.0000 -0.3122 0.9500
vn 0.1898 -0.3065 0.9327
vn 0.0000 -0.3122 -0.9500
vn -0.1898 -0.3065 -0.9327
vn -0.1898 -0.3065 0.9327
vn 0.1898 -0.3065 -0.9327
vn -0.5773 -0.5773 0.5773
vn -0.8396 0.0000 0.5432
vn -0.8396 0.0000 -0.5432
vn -0.5773 -0.5773 -0.5773
vn 0.0000 -0.7071 -0.7071
vn 0.0000 0.0000 -1.0000
vn 0.8396 0.0000 -0.5432
vn 0.5773 -0.5773 -0.5773
vn 0.8396 0.0000 0.5432
vn 0.5773 -0.5773 0.5773
vn 0.0000 -0.7071 0.7071
vn 0.0000 0.0000 1.0000
usemtl Obstacle_house_1
s 1
f 1/1/1 2/2/2 7/3/3
f 3/4/4 4/5/5 7/3/3
f 5/6/6 1/1/1 7/3/3
f 4/5/5 5/6/6 7/3/3
f 2/2/2 6/7/7 7/3/3
f 6/7/7 3/4/4 7/3/3
f 8/8/8 9/9/9 15/10/10 14/11/11
f 13/12/12 10/13/13 16/14/14 19/15/12
f 9/9/9 13/12/12 19/15/12 15/10/10
f 11/16/15 12/17/16 18/18/16 17/19/17
f 12/17/16 8/8/8 14/11/11 18/18/16
f 10/13/13 11/16/15 17/19/17 16/14/14
f 24/20/18 25/21/19 27/22/20 26/23/21
f 23/24/22 22/25/23 21/26/24 20/27/25
f 22/25/23 29/28/26 21/26/24
f 25/21/19 28/29/27 27/22/20
f 29/30/26 24/20/18 26/23/21
f 28/31/27 23/24/22 20/27/25
f 35/32/28 32/33/29 37/34/28
f 34/35/30 31/36/31 36/37/30
f 37/34/28 30/38/32 35/32/28
f 36/37/30 33/39/33 34/35/30
f 38/40/34 39/41/35 41/42/36 40/43/37
f 46/44/38 47/45/39 45/46/40 44/47/41
f 44/48/41 45/49/40 43/50/42 42/51/43
f 48/52/44 49/53/45 39/41/35 38/40/34
f 46/54/38 44/55/41 42/56/43 48/57/44
f 40/43/37 46/54/38 48/57/44 38/40/34
f 42/51/43 43/50/42 49/53/45 48/52/44
f 40/43/37 41/42/36 47/45/39 46/44/38
l 30 31
l 33 32
