# Blender v2.79 (sub 0) OBJ File: 'obstacles.blend'
# www.blender.org
mtllib obstacle house.mtl
o Obstacle_house_Cube.022
v -2.511744 0.000000 1.260331
v -2.511744 2.069801 1.260331
v -2.511744 0.000000 -1.260331
v -2.511744 2.069801 -1.260331
v 2.511744 0.000000 1.260331
v 2.511744 2.069801 1.260331
v 2.511744 0.000000 -1.260331
v 2.511744 2.069801 -1.260331
v -1.423341 0.000000 -1.260331
v -1.423341 2.069801 -1.260331
v -1.423341 0.000000 1.260331
v -1.423341 2.069801 1.260331
v -0.124129 2.069801 -1.260331
v -0.124129 0.000000 1.260331
v -0.124129 0.000000 -1.260331
v -0.124129 2.069801 1.260331
v 1.402763 2.069801 -1.260331
v 1.402763 0.000000 1.260331
v 1.402762 0.000000 -1.260331
v 1.402762 2.069801 1.260331
v -2.511744 0.261209 1.260331
v -2.511744 0.261209 -1.260331
v 2.511744 0.261209 -1.260331
v 2.511744 0.261209 1.260331
v -1.423341 1.175442 1.260331
v -1.423341 1.175442 -1.260331
v -0.124129 1.655841 1.260331
v -0.124129 1.655841 -1.260331
v 1.402762 1.175442 1.260331
v 1.402763 1.175442 -1.260331
v -2.511744 2.333883 1.260331
v -2.511744 2.333883 -1.260331
v 2.511744 2.333883 1.260331
v 2.511744 2.333883 -1.260331
v -1.423341 2.333883 -1.260331
v -1.423341 2.333883 1.260331
v -0.124129 2.333883 -1.260331
v -0.124129 2.333883 1.260331
v 1.402763 2.333883 -1.260331
v 1.402762 2.333883 1.260331
v -0.468817 3.484865 0.223291
v -0.468817 3.484865 -0.223291
v 0.167347 3.600972 -0.172126
v 0.421189 3.484865 -0.223291
v 0.421189 3.484865 0.223291
v -0.218621 3.600972 0.172126
v -0.218621 3.600972 -0.172126
v -0.045806 3.670678 0.104387
v -0.045806 3.670678 -0.104387
v 0.167347 3.600972 0.172126
v -2.511744 2.069801 1.260331
v -2.511744 2.069801 -1.260331
v 2.511744 2.069801 1.260331
v 2.511744 2.069801 -1.260331
v -1.423341 2.069801 -1.260331
v -1.423341 2.069801 1.260331
v -0.124129 2.069801 -1.260331
v -0.124129 2.069801 1.260331
v 1.402763 2.069801 -1.260331
v 1.402762 2.069801 1.260331
v -2.511744 2.333883 1.260331
v -2.511744 2.333883 -1.260331
v 2.511744 2.333883 1.260331
v 2.511744 2.333883 -1.260331
v -1.423341 2.333883 -1.260331
v -1.423341 2.333883 1.260331
v -0.124129 2.333883 -1.260331
v -0.124129 2.333883 1.260331
v 1.402763 2.333883 -1.260331
v 1.402762 2.333883 1.260331
v -2.942401 2.046898 1.478943
v -2.942401 2.046898 -1.478943
v 1.651100 2.046898 -1.478943
v 2.952442 2.046898 -1.478943
v 2.952442 2.046898 1.478943
v -1.665208 2.046898 1.478943
v -1.665208 2.046898 -1.478943
v -0.140640 2.046898 1.478943
v -0.140640 2.046898 -1.478943
v -0.140640 2.356786 -1.478943
v 1.651100 2.046898 1.478943
v 1.651100 2.356786 1.478943
v 2.952442 2.356786 1.478943
v -2.942401 2.356786 1.478943
v -2.942401 2.356786 -1.478943
v 1.651100 2.356786 -1.478943
v 2.952442 2.356786 -1.478943
v -1.665208 2.356786 1.478943
v -1.665208 2.356786 -1.478943
v -0.140640 2.356786 1.478943
vt 0.107655 0.448095
vt 0.000267 0.448058
vt 0.000318 0.298390
vt 0.107706 0.298427
vt 0.053502 0.065978
vt 0.000398 0.065960
vt 0.000421 0.000112
vt 0.107809 0.000149
vt 0.107500 0.896042
vt 0.000112 0.896005
vt 0.000164 0.746336
vt 0.107552 0.746373
vt 0.053348 0.512702
vt 0.000244 0.512684
vt 0.355646 0.298512
vt 0.421494 0.298535
vt 0.421442 0.448203
vt 0.355595 0.448180
vt 0.123216 0.298432
vt 0.187842 0.298454
vt 0.187790 0.448123
vt 0.123164 0.448100
vt 0.024797 0.589835
vt 0.000218 0.589827
vt 0.000341 0.233764
vt 0.053444 0.233782
vt 0.053290 0.680507
vt 0.000186 0.680488
vt 0.264984 0.298481
vt 0.264933 0.448149
vt 0.000367 0.156621
vt 0.024947 0.156630
vt 0.123265 0.156664
vt 0.123296 0.066002
vt 0.123062 0.746378
vt 0.123084 0.680531
vt 0.123238 0.233806
vt 0.123116 0.589869
vt 0.123142 0.512726
vt 0.123010 0.896047
vt 0.123319 0.000155
vt 0.648627 0.307082
vt 0.563136 0.298421
vt 0.645334 0.214070
vt 0.654673 0.210104
vt 0.498002 0.287582
vt 0.498076 0.125778
vt 0.630577 0.192556
vt 0.630345 0.218053
vt 0.749207 0.296535
vt 0.665852 0.214049
vt 0.563426 0.113889
vt 0.644979 0.196267
vt 0.654202 0.200122
vt 0.665487 0.196096
vt 0.680496 0.217759
vt 0.680710 0.192117
vt 0.749455 0.111705
vt 0.815922 0.122607
vt 0.815922 0.284603
vt 0.647579 0.103465
vt 0.010834 0.919274
vt 0.126146 0.923394
vt 0.113030 0.940223
vt 0.000112 0.939105
vt 0.879424 0.976965
vt 0.761247 0.975420
vt 0.760202 0.958380
vt 0.898864 0.960206
vt 0.660552 0.973992
vt 0.587464 0.965635
vt 0.577233 0.951669
vt 0.644231 0.957362
vt 0.880178 0.918961
vt 0.966004 0.920082
vt 0.999888 0.937538
vt 0.899176 0.936223
vt 0.965246 0.978087
vt 0.999575 0.961521
vt 0.201259 0.916891
vt 0.319396 0.918214
vt 0.320458 0.935246
vt 0.184047 0.933150
vt 0.493179 0.927991
vt 0.588655 0.923664
vt 0.576250 0.941405
vt 0.503410 0.941957
vt 0.661544 0.916424
vt 0.762010 0.917428
vt 0.760538 0.934412
vt 0.644994 0.932656
vt 0.491989 0.969962
vt 0.419101 0.977201
vt 0.435651 0.960970
vt 0.504394 0.952221
vt 0.113997 0.951256
vt 0.000112 0.956135
vt 0.436412 0.936264
vt 0.183423 0.957973
vt 0.320102 0.959200
vt 0.420091 0.919635
vt 0.318623 0.976198
vt 0.125701 0.966476
vt 0.013676 0.980086
vt 0.200252 0.974604
vn -0.7071 0.0000 0.7071
vn -0.7071 0.0000 -0.7071
vn 0.0000 0.0000 -1.0000
vn 0.7071 0.0000 -0.7071
vn 0.7071 0.0000 0.7071
vn 0.0000 0.0000 1.0000
vn 0.0000 -0.7071 -0.7071
vn 0.5773 -0.5773 -0.5773
vn 0.5773 -0.5773 0.5773
vn 0.0000 -0.7071 0.7071
vn -0.5773 -0.5773 -0.5773
vn -0.5773 -0.5773 0.5773
vn 0.0004 0.6518 -0.7584
vn -0.0207 0.6740 -0.7384
vn -0.2166 0.8727 -0.4375
vn -0.0263 0.9479 -0.3175
vn -0.3593 0.8871 -0.2897
vn -0.3593 0.8871 0.2897
vn -0.2923 0.8800 0.3742
vn -0.2923 0.8800 -0.3742
vn 0.0207 0.6743 -0.7382
vn 0.2047 0.8805 -0.4276
vn -0.0207 0.6740 0.7384
vn -0.2166 0.8727 0.4375
vn -0.0263 0.9479 0.3175
vn 0.2047 0.8805 0.4276
vn 0.2871 0.8816 -0.3746
vn 0.2871 0.8816 0.3746
vn 0.0207 0.6743 0.7382
vn 0.3551 0.8903 0.2850
vn 0.3551 0.8903 -0.2850
vn 0.0004 0.6518 0.7584
vn -0.0224 0.9980 0.0594
vn -0.0224 0.9980 -0.0594
vn 0.5690 0.5902 0.5726
vn 0.5690 0.5902 -0.5726
vn 0.0000 -0.9945 0.1042
vn 0.0000 -0.7430 -0.6692
vn 0.0230 -0.9980 0.0591
vn -0.5689 -0.5904 -0.5724
vn 0.0000 0.9945 0.1042
vn 0.0000 0.7430 -0.6692
vn -0.0224 -0.9980 0.0594
vn 0.5690 -0.5902 -0.5726
vn 0.0000 0.9945 -0.1042
vn 0.0000 0.7430 0.6692
vn 0.0230 0.9980 -0.0591
vn 0.0230 0.9980 0.0591
vn -0.5689 0.5904 -0.5724
vn -0.5689 0.5904 0.5724
vn 0.0230 -0.9980 -0.0591
vn 0.0000 -0.9945 -0.1042
vn 0.0000 -0.7430 0.6692
vn -0.5689 -0.5904 0.5724
vn 0.5690 -0.5902 0.5726
vn -0.0224 -0.9980 -0.0594
usemtl Obstacle_house
s 1
f 21/1/1 2/2/1 4/3/2 22/4/2
f 30/5/3 17/6/3 8/7/4 23/8/4
f 23/9/4 8/10/4 6/11/5 24/12/5
f 25/13/6 12/14/6 2/2/1 21/1/1
f 19/15/7 7/16/8 5/17/9 18/18/10
f 3/19/11 9/20/7 11/21/10 1/22/12
f 27/23/6 16/24/6 12/14/6 25/13/6
f 22/4/2 4/3/2 10/25/3 26/26/3
f 29/27/6 20/28/6 16/24/6 27/23/6
f 9/20/7 15/29/7 14/30/10 11/21/10
f 26/26/3 10/25/3 13/31/3 28/32/3
f 24/12/5 6/11/5 20/28/6 29/27/6
f 15/29/7 19/15/7 18/18/10 14/30/10
f 28/32/3 13/31/3 17/6/3 30/5/3
f 15/33/7 28/32/3 30/5/3 19/34/7
f 5/35/9 24/12/5 29/27/6 18/36/10
f 9/37/7 26/26/3 28/32/3 15/33/7
f 18/36/10 29/27/6 27/23/6 14/38/10
f 3/19/11 22/4/2 26/26/3 9/37/7
f 14/38/10 27/23/6 25/13/6 11/39/10
f 11/39/10 25/13/6 21/1/1 1/22/12
f 7/40/8 23/9/4 24/12/5 5/35/9
f 19/34/7 30/5/3 23/8/4 7/41/8
f 1/22/12 21/1/1 22/4/2 3/19/11
f 37/42/13 35/43/14 47/44/15 49/45/16
f 32/46/17 31/47/18 41/48/19 42/49/20
f 39/50/21 37/42/13 49/45/16 43/51/22
f 31/47/18 36/52/23 46/53/24 41/48/19
f 47/44/15 42/49/20 41/48/19 46/53/24
f 49/45/16 47/44/15 46/53/24 48/54/25
f 43/51/22 49/45/16 48/54/25 50/55/26
f 44/56/27 43/51/22 50/55/26 45/57/28
f 35/43/14 32/46/17 42/49/20 47/44/15
f 40/58/29 33/59/30 45/57/28 50/55/26
f 34/60/31 39/50/21 43/51/22 44/56/27
f 38/61/32 40/58/29 50/55/26 48/54/25
f 36/52/23 38/61/32 48/54/25 46/53/24
f 33/59/30 34/60/31 44/56/27 45/57/28
f 64/62/33 63/63/34 83/64/35 87/65/36
f 59/66/37 57/67/37 79/68/38 73/69/38
f 55/70/37 52/71/39 72/72/40 77/73/38
f 69/74/41 64/75/33 87/76/36 86/77/42
f 57/67/37 55/70/37 77/73/38 79/68/38
f 54/78/43 59/66/37 73/69/38 74/79/44
f 70/80/45 68/81/45 90/82/46 82/83/46
f 61/84/47 62/85/48 85/86/49 84/87/50
f 65/88/41 67/89/41 80/90/42 89/91/42
f 51/92/51 56/93/52 76/94/53 71/95/54
f 75/96/55 74/97/44 87/65/36 83/64/35
f 71/95/54 76/94/53 88/98/46 84/87/50
f 73/69/38 79/68/38 80/90/42 86/77/42
f 81/99/53 75/96/55 83/64/35 82/83/46
f 76/94/53 78/100/53 90/82/46 88/98/46
f 74/79/44 73/69/38 86/77/42 87/76/36
f 72/72/40 71/95/54 84/87/50 85/86/49
f 78/100/53 81/99/53 82/83/46 90/82/46
f 77/73/38 72/72/40 85/86/49 89/91/42
f 79/68/38 77/73/38 89/91/42 80/90/42
f 67/89/41 69/74/41 86/77/42 80/90/42
f 66/101/45 61/84/47 84/87/50 88/98/46
f 56/93/52 58/102/52 78/100/53 76/94/53
f 63/63/34 70/80/45 82/83/46 83/64/35
f 53/103/56 54/104/43 74/97/44 75/96/55
f 62/85/48 65/88/41 89/91/42 85/86/49
f 58/102/52 60/105/52 81/99/53 78/100/53
f 60/105/52 53/103/56 75/96/55 81/99/53
f 68/81/45 66/101/45 88/98/46 90/82/46
f 52/71/39 51/92/51 71/95/54 72/72/40
