# Blender v2.79 (sub 0) OBJ File: ''
# www.blender.org
mtllib gameboard7x7.mtl
o Gameboard7x7_Plane.004
v -14.317304 0.343346 16.184807
v 15.705512 0.343346 16.184807
v -14.317304 0.343346 -13.838009
v 15.705512 0.343346 -13.838009
v -14.317304 0.005223 16.184807
v 15.705512 0.005223 16.184807
v -14.317304 0.005223 -13.838009
v 15.705512 0.005223 -13.838009
v -14.317304 0.343346 -9.549035
v -14.317304 0.343346 -5.260061
v -14.317304 0.343346 -0.971087
v -14.317304 0.343346 3.317886
v -14.317304 0.343346 7.606860
v -14.317304 0.343346 11.895834
v 15.705512 0.343346 11.895833
v 15.705512 0.343346 7.606859
v 15.705512 0.343346 3.317885
v 15.705512 0.343346 -0.971088
v 15.705512 0.343346 -5.260062
v 15.705512 0.343346 -9.549036
v -14.317304 0.005223 -9.549035
v -14.317304 0.005223 -5.260061
v -14.317304 0.005223 -0.971087
v -14.317304 0.005223 3.317886
v -14.317304 0.005223 7.606860
v -14.317304 0.005223 11.895834
v 15.705512 0.005223 11.895833
v 15.705512 0.005223 7.606859
v 15.705512 0.005223 3.317885
v 15.705512 0.005223 -0.971088
v 15.705512 0.005223 -5.260062
v 15.705512 0.005223 -9.549036
v -10.028330 0.343346 16.184807
v -5.739356 0.343346 16.184807
v -1.450382 0.343346 16.184807
v 2.838592 0.343346 16.184807
v 7.127565 0.343346 16.184807
v 11.416538 0.343346 16.184807
v 11.416538 0.343346 -13.838009
v 7.127564 0.343346 -13.838009
v 2.838591 0.343346 -13.838009
v -1.450383 0.343346 -13.838009
v -5.739357 0.343346 -13.838009
v -10.028330 0.343346 -13.838009
v -10.028330 0.005223 16.184807
v -5.739356 0.005223 16.184807
v -1.450382 0.005223 16.184807
v 2.838592 0.005223 16.184807
v 7.127565 0.005223 16.184807
v 11.416538 0.005223 16.184807
v 11.416538 0.005223 -13.838009
v 7.127564 0.005223 -13.838009
v 2.838591 0.005223 -13.838009
v -1.450383 0.005223 -13.838009
v -5.739357 0.005223 -13.838009
v -10.028330 0.005223 -13.838009
v -10.028330 0.343346 -9.549035
v -5.739356 0.343346 -9.549035
v -1.450382 0.343346 -9.549035
v 2.838592 0.343346 -9.549035
v 7.127565 0.343346 -9.549035
v 11.416538 0.343346 -9.549036
v -10.028330 0.343346 -5.260061
v -5.739356 0.343346 -5.260061
v -1.450382 0.343346 -5.260061
v 2.838592 0.343346 -5.260061
v 7.127565 0.343346 -5.260062
v 11.416538 0.343346 -5.260062
v -10.028330 0.343346 -0.971088
v -5.739356 0.343346 -0.971088
v -1.450382 0.343346 -0.971088
v 2.838592 0.343346 -0.971088
v 7.127565 0.343346 -0.971088
v 11.416538 0.343346 -0.971088
v -10.028330 0.343346 3.317886
v -5.739356 0.343346 3.317886
v -1.450382 0.343346 3.317886
v 2.838592 0.343346 3.317886
v 7.127565 0.343346 3.317886
v 11.416538 0.343346 3.317885
v -10.028330 0.343346 7.606860
v -5.739356 0.343346 7.606860
v -1.450382 0.343346 7.606860
v 2.838592 0.343346 7.606860
v 7.127565 0.343346 7.606860
v 11.416538 0.343346 7.606859
v -10.028330 0.343346 11.895834
v -5.739356 0.343346 11.895834
v -1.450382 0.343346 11.895834
v 2.838592 0.343346 11.895834
v 7.127565 0.343346 11.895834
v 11.416538 0.343346 11.895834
v -10.028330 0.005223 11.895834
v -5.739356 0.005223 11.895834
v -1.450382 0.005223 11.895834
v 2.838592 0.005223 11.895834
v 7.127565 0.005223 11.895834
v 11.416538 0.005223 11.895834
v -10.028330 0.005223 7.606860
v -5.739356 0.005223 7.606860
v -1.450382 0.005223 7.606860
v 2.838592 0.005223 7.606860
v 7.127565 0.005223 7.606860
v 11.416538 0.005223 7.606859
v -10.028330 0.005223 3.317886
v -5.739356 0.005223 3.317886
v -1.450382 0.005223 3.317886
v 2.838592 0.005223 3.317886
v 7.127565 0.005223 3.317886
v 11.416538 0.005223 3.317885
v -10.028330 0.005223 -0.971088
v -5.739356 0.005223 -0.971088
v -1.450382 0.005223 -0.971088
v 2.838592 0.005223 -0.971088
v 7.127565 0.005223 -0.971088
v 11.416538 0.005223 -0.971088
v -10.028330 0.005223 -5.260061
v -5.739356 0.005223 -5.260061
v -1.450382 0.005223 -5.260061
v 2.838592 0.005223 -5.260061
v 7.127565 0.005223 -5.260062
v 11.416538 0.005223 -5.260062
v -10.028330 0.005223 -9.549035
v -5.739356 0.005223 -9.549035
v -1.450382 0.005223 -9.549035
v 2.838592 0.005223 -9.549035
v 7.127565 0.005223 -9.549035
v 11.416538 0.005223 -9.549036
vt -0.161428 0.716145
vt -0.091409 0.716145
vt -0.091409 0.786164
vt -0.161428 0.786164
vt 0.812014 0.040424
vt 0.912045 0.067515
vt 0.906064 0.074048
vt 0.810738 0.049069
vt 0.948154 0.804161
vt 0.927992 0.917236
vt 0.920428 0.910386
vt 0.938815 0.803260
vt 0.178168 0.933695
vt 0.078136 0.906604
vt 0.084117 0.900070
vt 0.179444 0.925050
vt 0.042028 0.169958
vt 0.062190 0.056883
vt 0.069754 0.063732
vt 0.051367 0.170859
vt 0.175403 0.169574
vt 0.171321 0.044400
vt 0.058098 0.808537
vt 0.181190 0.802196
vt 0.049222 0.681734
vt 0.177679 0.678116
vt 0.046903 0.552329
vt 0.175939 0.551080
vt 0.046853 0.422791
vt 0.175474 0.423110
vt 0.048105 0.294535
vt 0.175635 0.295563
vt 0.048072 0.810378
vt 0.039073 0.682174
vt 0.036684 0.552423
vt 0.036685 0.422737
vt 0.038154 0.294338
vt 0.942109 0.163741
vt 0.932084 0.165582
vt 0.951109 0.291944
vt 0.940960 0.292384
vt 0.953498 0.421696
vt 0.943279 0.421790
vt 0.953497 0.551382
vt 0.943329 0.551328
vt 0.952028 0.679781
vt 0.942077 0.679584
vt -0.581543 0.716145
vt -0.511524 0.716145
vt -0.511524 0.786164
vt -0.581543 0.786164
vt -0.441505 0.716145
vt -0.441505 0.786164
vt -0.371486 0.716145
vt -0.371486 0.786164
vt -0.301466 0.716145
vt -0.301466 0.786164
vt -0.231447 0.716145
vt -0.231447 0.786164
vt -0.231447 0.296030
vt -0.161428 0.296030
vt -0.161428 0.366049
vt -0.231447 0.366049
vt -0.161428 0.436068
vt -0.231447 0.436068
vt -0.161428 0.506087
vt -0.231447 0.506087
vt -0.161428 0.576107
vt -0.231447 0.576107
vt -0.161428 0.646126
vt -0.231447 0.646126
vt -0.301466 0.296030
vt -0.301466 0.366049
vt -0.301466 0.436068
vt -0.301466 0.506087
vt -0.301466 0.576107
vt -0.301466 0.646126
vt -0.371486 0.296030
vt -0.371486 0.366049
vt -0.371486 0.436068
vt -0.371486 0.506087
vt -0.371486 0.576107
vt -0.371486 0.646126
vt -0.441505 0.296030
vt -0.441505 0.366049
vt -0.441505 0.436068
vt -0.441505 0.506087
vt -0.441505 0.576107
vt -0.441505 0.646126
vt -0.511524 0.296030
vt -0.511524 0.366049
vt -0.511524 0.436068
vt -0.511524 0.506087
vt -0.511524 0.576107
vt -0.511524 0.646126
vt -0.581543 0.296030
vt -0.581543 0.366049
vt -0.581543 0.436068
vt -0.581543 0.506087
vt -0.581543 0.576107
vt -0.581543 0.646126
vt 0.812503 0.296002
vt 0.808991 0.171922
vt 0.686060 0.296488
vt 0.686490 0.169948
vt 0.559170 0.295887
vt 0.560176 0.168070
vt 0.431513 0.295394
vt 0.432013 0.167111
vt 0.303515 0.295375
vt 0.303349 0.167524
vt 0.814243 0.423038
vt 0.686454 0.423527
vt 0.558942 0.423405
vt 0.431307 0.423142
vt 0.303512 0.423046
vt 0.814708 0.551009
vt 0.686670 0.551073
vt 0.558875 0.550977
vt 0.431240 0.550714
vt 0.303728 0.550592
vt 0.814547 0.678556
vt 0.686667 0.678744
vt 0.558669 0.678725
vt 0.431012 0.678232
vt 0.304122 0.677631
vt 0.814779 0.804545
vt 0.686833 0.806595
vt 0.558169 0.807007
vt 0.430006 0.806049
vt 0.303692 0.804171
vt 0.818861 0.929718
vt 0.687792 0.936446
vt 0.557235 0.936773
vt 0.427402 0.934804
vt 0.299710 0.931331
vt 0.690472 0.042788
vt 0.562780 0.039315
vt 0.432947 0.037346
vt 0.302390 0.037673
vt 0.820276 0.940466
vt 0.688051 0.946799
vt 0.557165 0.947048
vt 0.427175 0.944962
vt 0.299288 0.941121
vt 0.169906 0.033653
vt 0.302131 0.027320
vt 0.433017 0.027071
vt 0.563007 0.029157
vt 0.690894 0.032998
vt -0.091409 0.296030
vt -0.091409 0.366049
vt -0.091409 0.436068
vt -0.091409 0.506087
vt -0.091409 0.576107
vt -0.091409 0.646126
vn 0.0000 -1.0000 0.0000
vn 0.0000 0.0000 1.0000
vn 1.0000 0.0000 0.0000
vn 0.0000 0.0000 -1.0000
vn -1.0000 0.0000 0.0000
vn 0.0000 1.0000 0.0000
usemtl Gameboard7x7
s off
f 128/1/1 51/2/1 8/3/1 32/4/1
f 50/5/2 6/6/2 2/7/2 38/8/2
f 32/9/3 8/10/3 4/11/3 20/12/3
f 56/13/4 7/14/4 3/15/4 44/16/4
f 26/17/5 5/18/5 1/19/5 14/20/5
f 87/21/6 14/20/6 1/19/6 33/22/6
f 44/16/6 3/15/6 9/23/6 57/24/6
f 57/24/6 9/23/6 10/25/6 63/26/6
f 63/26/6 10/25/6 11/27/6 69/28/6
f 69/28/6 11/27/6 12/29/6 75/30/6
f 75/30/6 12/29/6 13/31/6 81/32/6
f 81/32/6 13/31/6 14/20/6 87/21/6
f 7/14/5 21/33/5 9/23/5 3/15/5
f 21/33/5 22/34/5 10/25/5 9/23/5
f 22/34/5 23/35/5 11/27/5 10/25/5
f 23/35/5 24/36/5 12/29/5 11/27/5
f 24/36/5 25/37/5 13/31/5 12/29/5
f 25/37/5 26/17/5 14/20/5 13/31/5
f 6/6/3 27/38/3 15/39/3 2/7/3
f 27/38/3 28/40/3 16/41/3 15/39/3
f 28/40/3 29/42/3 17/43/3 16/41/3
f 29/42/3 30/44/3 18/45/3 17/43/3
f 30/44/3 31/46/3 19/47/3 18/45/3
f 31/46/3 32/9/3 20/12/3 19/47/3
f 50/48/1 98/49/1 27/50/1 6/51/1
f 98/49/1 104/52/1 28/53/1 27/50/1
f 104/52/1 110/54/1 29/55/1 28/53/1
f 110/54/1 116/56/1 30/57/1 29/55/1
f 116/56/1 122/58/1 31/59/1 30/57/1
f 122/58/1 128/1/1 32/4/1 31/59/1
f 22/60/1 21/61/1 123/62/1 117/63/1
f 117/63/1 123/62/1 124/64/1 118/65/1
f 118/65/1 124/64/1 125/66/1 119/67/1
f 119/67/1 125/66/1 126/68/1 120/69/1
f 120/69/1 126/68/1 127/70/1 121/71/1
f 121/71/1 127/70/1 128/1/1 122/58/1
f 23/72/1 22/60/1 117/63/1 111/73/1
f 111/73/1 117/63/1 118/65/1 112/74/1
f 112/74/1 118/65/1 119/67/1 113/75/1
f 113/75/1 119/67/1 120/69/1 114/76/1
f 114/76/1 120/69/1 121/71/1 115/77/1
f 115/77/1 121/71/1 122/58/1 116/56/1
f 24/78/1 23/72/1 111/73/1 105/79/1
f 105/79/1 111/73/1 112/74/1 106/80/1
f 106/80/1 112/74/1 113/75/1 107/81/1
f 107/81/1 113/75/1 114/76/1 108/82/1
f 108/82/1 114/76/1 115/77/1 109/83/1
f 109/83/1 115/77/1 116/56/1 110/54/1
f 25/84/1 24/78/1 105/79/1 99/85/1
f 99/85/1 105/79/1 106/80/1 100/86/1
f 100/86/1 106/80/1 107/81/1 101/87/1
f 101/87/1 107/81/1 108/82/1 102/88/1
f 102/88/1 108/82/1 109/83/1 103/89/1
f 103/89/1 109/83/1 110/54/1 104/52/1
f 26/90/1 25/84/1 99/85/1 93/91/1
f 93/91/1 99/85/1 100/86/1 94/92/1
f 94/92/1 100/86/1 101/87/1 95/93/1
f 95/93/1 101/87/1 102/88/1 96/94/1
f 96/94/1 102/88/1 103/89/1 97/95/1
f 97/95/1 103/89/1 104/52/1 98/49/1
f 5/96/1 26/90/1 93/91/1 45/97/1
f 45/97/1 93/91/1 94/92/1 46/98/1
f 46/98/1 94/92/1 95/93/1 47/99/1
f 47/99/1 95/93/1 96/94/1 48/100/1
f 48/100/1 96/94/1 97/95/1 49/101/1
f 49/101/1 97/95/1 98/49/1 50/48/1
f 16/41/6 86/102/6 92/103/6 15/39/6
f 86/102/6 85/104/6 91/105/6 92/103/6
f 85/104/6 84/106/6 90/107/6 91/105/6
f 84/106/6 83/108/6 89/109/6 90/107/6
f 83/108/6 82/110/6 88/111/6 89/109/6
f 82/110/6 81/32/6 87/21/6 88/111/6
f 17/43/6 80/112/6 86/102/6 16/41/6
f 80/112/6 79/113/6 85/104/6 86/102/6
f 79/113/6 78/114/6 84/106/6 85/104/6
f 78/114/6 77/115/6 83/108/6 84/106/6
f 77/115/6 76/116/6 82/110/6 83/108/6
f 76/116/6 75/30/6 81/32/6 82/110/6
f 18/45/6 74/117/6 80/112/6 17/43/6
f 74/117/6 73/118/6 79/113/6 80/112/6
f 73/118/6 72/119/6 78/114/6 79/113/6
f 72/119/6 71/120/6 77/115/6 78/114/6
f 71/120/6 70/121/6 76/116/6 77/115/6
f 70/121/6 69/28/6 75/30/6 76/116/6
f 19/47/6 68/122/6 74/117/6 18/45/6
f 68/122/6 67/123/6 73/118/6 74/117/6
f 67/123/6 66/124/6 72/119/6 73/118/6
f 66/124/6 65/125/6 71/120/6 72/119/6
f 65/125/6 64/126/6 70/121/6 71/120/6
f 64/126/6 63/26/6 69/28/6 70/121/6
f 20/12/6 62/127/6 68/122/6 19/47/6
f 62/127/6 61/128/6 67/123/6 68/122/6
f 61/128/6 60/129/6 66/124/6 67/123/6
f 60/129/6 59/130/6 65/125/6 66/124/6
f 59/130/6 58/131/6 64/126/6 65/125/6
f 58/131/6 57/24/6 63/26/6 64/126/6
f 4/11/6 39/132/6 62/127/6 20/12/6
f 39/132/6 40/133/6 61/128/6 62/127/6
f 40/133/6 41/134/6 60/129/6 61/128/6
f 41/134/6 42/135/6 59/130/6 60/129/6
f 42/135/6 43/136/6 58/131/6 59/130/6
f 43/136/6 44/16/6 57/24/6 58/131/6
f 15/39/6 92/103/6 38/8/6 2/7/6
f 92/103/6 91/105/6 37/137/6 38/8/6
f 91/105/6 90/107/6 36/138/6 37/137/6
f 90/107/6 89/109/6 35/139/6 36/138/6
f 89/109/6 88/111/6 34/140/6 35/139/6
f 88/111/6 87/21/6 33/22/6 34/140/6
f 8/10/4 51/141/4 39/132/4 4/11/4
f 51/141/4 52/142/4 40/133/4 39/132/4
f 52/142/4 53/143/4 41/134/4 40/133/4
f 53/143/4 54/144/4 42/135/4 41/134/4
f 54/144/4 55/145/4 43/136/4 42/135/4
f 55/145/4 56/13/4 44/16/4 43/136/4
f 5/18/2 45/146/2 33/22/2 1/19/2
f 45/146/2 46/147/2 34/140/2 33/22/2
f 46/147/2 47/148/2 35/139/2 34/140/2
f 47/148/2 48/149/2 36/138/2 35/139/2
f 48/149/2 49/150/2 37/137/2 36/138/2
f 49/150/2 50/5/2 38/8/2 37/137/2
f 21/61/1 7/151/1 56/152/1 123/62/1
f 123/62/1 56/152/1 55/153/1 124/64/1
f 124/64/1 55/153/1 54/154/1 125/66/1
f 125/66/1 54/154/1 53/155/1 126/68/1
f 126/68/1 53/155/1 52/156/1 127/70/1
f 127/70/1 52/156/1 51/2/1 128/1/1
