# Blender v2.79 (sub 0) OBJ File: ''
# www.blender.org
mtllib gameboard5x9.mtl
o Gameboard9x5_Plane.007
v -15.410270 0.613959 -11.507666
v -15.410274 0.613959 13.147249
v 18.772152 0.613959 -11.507664
v 18.772148 0.613959 13.147252
v -15.410270 -0.265390 -11.507666
v -15.410274 -0.265390 13.147249
v 18.772152 -0.265390 -11.507664
v 18.772148 -0.265390 13.147252
v 14.974105 -0.265390 -11.507664
v 11.176058 -0.265390 -11.507664
v 7.378011 -0.265390 -11.507664
v 3.579964 -0.265390 -11.507664
v -0.218083 -0.265390 -11.507664
v -4.016129 -0.265390 -11.507664
v -7.814177 -0.265390 -11.507665
v -11.612223 -0.265390 -11.507666
v 14.974105 0.613959 -11.507664
v 11.176058 0.613959 -11.507664
v 7.378011 0.613959 -11.507664
v 3.579964 0.613959 -11.507664
v -0.218083 0.613959 -11.507664
v -4.016129 0.613959 -11.507664
v -7.814177 0.613959 -11.507665
v -11.612223 0.613959 -11.507666
v -11.612226 -0.265390 13.147249
v -7.814179 -0.265390 13.147249
v -4.016132 -0.265390 13.147249
v -0.218086 -0.265390 13.147249
v 3.579961 -0.265390 13.147250
v 7.378008 -0.265390 13.147251
v 11.176055 -0.265390 13.147251
v 14.974102 -0.265390 13.147251
v -11.612226 0.613959 13.147249
v -7.814179 0.613959 13.147249
v -4.016132 0.613959 13.147249
v -0.218086 0.613959 13.147249
v 3.579961 0.613959 13.147250
v 7.378008 0.613959 13.147251
v 11.176055 0.613959 13.147251
v 14.974102 0.613959 13.147251
v -15.410271 0.613959 -6.576683
v -15.410272 0.613959 -1.645700
v -15.410273 0.613959 3.285284
v -15.410273 0.613959 8.216267
v 18.772148 0.613959 8.216269
v 18.772148 0.613959 3.285285
v 18.772150 0.613959 -1.645698
v 18.772152 0.613959 -6.576681
v 18.772148 -0.265390 8.216269
v 18.772148 -0.265390 3.285285
v 18.772150 -0.265390 -1.645698
v 18.772152 -0.265390 -6.576681
v -15.410271 -0.265390 -6.576683
v -15.410272 -0.265390 -1.645700
v -15.410273 -0.265390 3.285284
v -15.410273 -0.265390 8.216267
v -11.612226 0.613959 8.216267
v -11.612225 0.613959 3.285284
v -11.612224 0.613959 -1.645700
v -11.612223 0.613959 -6.576683
v -7.814179 0.613959 8.216267
v -7.814178 0.613959 3.285284
v -7.814178 0.613959 -1.645699
v -7.814178 0.613959 -6.576682
v -4.016132 0.613959 8.216267
v -4.016131 0.613959 3.285284
v -4.016131 0.613959 -1.645699
v -4.016130 0.613959 -6.576681
v -0.218085 0.613959 8.216267
v -0.218084 0.613959 3.285284
v -0.218084 0.613959 -1.645699
v -0.218083 0.613959 -6.576681
v 3.579962 0.613959 8.216267
v 3.579962 0.613959 3.285284
v 3.579963 0.613959 -1.645699
v 3.579963 0.613959 -6.576681
v 7.378008 0.613959 8.216269
v 7.378009 0.613959 3.285285
v 7.378009 0.613959 -1.645698
v 7.378010 0.613959 -6.576681
v 11.176056 0.613959 8.216269
v 11.176056 0.613959 3.285285
v 11.176057 0.613959 -1.645698
v 11.176058 0.613959 -6.576681
v 14.974103 0.613959 8.216269
v 14.974104 0.613959 3.285285
v 14.974104 0.613959 -1.645698
v 14.974104 0.613959 -6.576681
v 14.974103 -0.265390 8.216269
v 14.974104 -0.265390 3.285285
v 14.974104 -0.265390 -1.645698
v 14.974104 -0.265390 -6.576681
v 11.176056 -0.265390 8.216269
v 11.176056 -0.265390 3.285285
v 11.176057 -0.265390 -1.645698
v 11.176058 -0.265390 -6.576681
v 7.378008 -0.265390 8.216269
v 7.378009 -0.265390 3.285285
v 7.378009 -0.265390 -1.645698
v 7.378010 -0.265390 -6.576681
v 3.579962 -0.265390 8.216267
v 3.579962 -0.265390 3.285284
v 3.579963 -0.265390 -1.645699
v 3.579963 -0.265390 -6.576681
v -0.218085 -0.265390 8.216267
v -0.218084 -0.265390 3.285284
v -0.218084 -0.265390 -1.645699
v -0.218083 -0.265390 -6.576681
v -4.016132 -0.265390 8.216267
v -4.016131 -0.265390 3.285284
v -4.016131 -0.265390 -1.645699
v -4.016130 -0.265390 -6.576681
v -7.814179 -0.265390 8.216267
v -7.814178 -0.265390 3.285284
v -7.814178 -0.265390 -1.645699
v -7.814178 -0.265390 -6.576682
v -11.612226 -0.265390 8.216267
v -11.612225 -0.265390 3.285284
v -11.612224 -0.265390 -1.645700
v -11.612223 -0.265390 -6.576683
vt 0.864258 0.827590
vt 0.860172 0.807402
vt 0.934341 0.785080
vt 0.948338 0.800513
vt -0.650664 0.150758
vt -0.650664 0.088687
vt -0.570079 0.088687
vt -0.570079 0.150758
vt 0.860536 0.129937
vt 0.964842 0.156886
vt 0.945213 0.175471
vt 0.857109 0.153623
vt 0.860023 0.287554
vt 0.964628 0.288670
vt 0.987802 0.286434
vt 0.021723 0.686919
vt 0.043952 0.685376
vt 0.057190 0.795842
vt 0.038414 0.810030
vt 0.050419 0.296072
vt 0.070177 0.202784
vt 0.139531 0.180451
vt 0.147809 0.299986
vt 0.237069 0.167667
vt 0.244968 0.297146
vt 0.339230 0.160844
vt 0.345275 0.293758
vt 0.443198 0.156271
vt 0.447532 0.290845
vt 0.548034 0.153178
vt 0.550767 0.288638
vt 0.653192 0.151405
vt 0.654301 0.287282
vt 0.757645 0.150999
vt 0.757532 0.286911
vt 0.056221 0.190263
vt 0.133800 0.157778
vt 0.234757 0.144184
vt 0.337868 0.136886
vt 0.442287 0.132051
vt 0.547468 0.128829
vt 0.652969 0.127090
vt 0.757906 0.127051
vt -0.650664 0.647321
vt -0.650664 0.585250
vt -0.570079 0.585250
vt -0.570079 0.647321
vt -0.650664 0.523180
vt -0.570079 0.523180
vt -0.650664 0.461110
vt -0.570079 0.461110
vt -0.650664 0.399039
vt -0.570079 0.399039
vt -0.650664 0.336969
vt -0.570079 0.336969
vt -0.650664 0.274899
vt -0.570079 0.274899
vt -0.650664 0.212828
vt -0.570079 0.212828
vt 0.137851 0.817522
vt 0.132568 0.843328
vt 0.243723 0.827776
vt 0.242555 0.852828
vt 0.350204 0.829452
vt 0.350201 0.854186
vt 0.456294 0.828207
vt 0.456813 0.852740
vt 0.561623 0.825243
vt 0.562521 0.849526
vt 0.665682 0.820874
vt 0.666958 0.844696
vt 0.766986 0.815182
vt 0.768796 0.837903
vt -0.973007 0.212828
vt -0.973007 0.150758
vt -0.892421 0.150758
vt -0.892421 0.212828
vt -0.811836 0.150758
vt -0.811836 0.212828
vt -0.731250 0.150758
vt -0.731250 0.212828
vt -0.973007 0.274899
vt -0.892421 0.274898
vt -0.811836 0.274899
vt -0.731250 0.274899
vt -0.973007 0.336969
vt -0.892421 0.336969
vt -0.811836 0.336969
vt -0.731250 0.336969
vt -0.973007 0.399039
vt -0.892421 0.399039
vt -0.811836 0.399039
vt -0.731250 0.399039
vt -0.973007 0.461110
vt -0.892421 0.461110
vt -0.811836 0.461110
vt -0.731250 0.461110
vt -0.973007 0.523180
vt -0.892421 0.523180
vt -0.811836 0.523180
vt -0.731250 0.523180
vt -0.973007 0.585251
vt -0.892421 0.585251
vt -0.811836 0.585251
vt -0.731250 0.585251
vt -0.973007 0.647321
vt -0.892421 0.647321
vt -0.811836 0.647321
vt -0.731250 0.647321
vt 0.760323 0.684722
vt 0.857795 0.683544
vt 0.759458 0.553174
vt 0.861572 0.553152
vt 0.758685 0.420338
vt 0.861861 0.419862
vt 0.659935 0.687577
vt 0.657454 0.554528
vt 0.655833 0.421260
vt 0.557454 0.690158
vt 0.554964 0.556229
vt 0.552973 0.422670
vt 0.453923 0.691968
vt 0.452151 0.557767
vt 0.450256 0.424384
vt 0.350008 0.692589
vt 0.349365 0.558808
vt 0.348031 0.426152
vt 0.246308 0.691551
vt 0.246920 0.559110
vt 0.246609 0.427589
vt 0.143637 0.688570
vt 0.144968 0.558716
vt 0.145783 0.427899
vt 0.043390 0.558632
vt 0.044114 0.426356
vt 0.027162 0.292604
vt 0.020487 0.425756
vt 0.020148 0.558671
vt 0.958635 0.689178
vt 0.982845 0.693303
vt 0.966200 0.554926
vt 0.990564 0.555591
vt 0.966621 0.418972
vt 0.990566 0.418792
vt -0.973007 0.088687
vt -0.892421 0.088687
vt -0.811836 0.088687
vt -0.731250 0.088687
vn 0.0000 0.0000 -1.0000
vn 0.0000 -1.0000 0.0000
vn 0.0000 0.0000 1.0000
vn 0.0000 1.0000 0.0000
vn 1.0000 0.0000 0.0000
vn -1.0000 0.0000 -0.0000
usemtl Gameboard5x9
s off
f 9/1/1 17/2/1 3/3/1 7/4/1
f 120/5/2 53/6/2 5/7/2 16/8/2
f 32/9/3 8/10/3 4/11/3 40/12/3
f 85/13/4 40/12/4 4/11/4 45/14/4
f 49/15/5 45/14/5 4/11/5 8/10/5
f 53/16/6 41/17/6 1/18/6 5/19/6
f 44/20/4 2/21/4 33/22/4 57/23/4
f 57/23/4 33/22/4 34/24/4 61/25/4
f 61/25/4 34/24/4 35/26/4 65/27/4
f 65/27/4 35/26/4 36/28/4 69/29/4
f 69/29/4 36/28/4 37/30/4 73/31/4
f 73/31/4 37/30/4 38/32/4 77/33/4
f 77/33/4 38/32/4 39/34/4 81/35/4
f 81/35/4 39/34/4 40/12/4 85/13/4
f 6/36/3 25/37/3 33/22/3 2/21/3
f 25/37/3 26/38/3 34/24/3 33/22/3
f 26/38/3 27/39/3 35/26/3 34/24/3
f 27/39/3 28/40/3 36/28/3 35/26/3
f 28/40/3 29/41/3 37/30/3 36/28/3
f 29/41/3 30/42/3 38/32/3 37/30/3
f 30/42/3 31/43/3 39/34/3 38/32/3
f 31/43/3 32/9/3 40/12/3 39/34/3
f 52/44/2 92/45/2 9/46/2 7/47/2
f 92/45/2 96/48/2 10/49/2 9/46/2
f 96/48/2 100/50/2 11/51/2 10/49/2
f 100/50/2 104/52/2 12/53/2 11/51/2
f 104/52/2 108/54/2 13/55/2 12/53/2
f 108/54/2 112/56/2 14/57/2 13/55/2
f 112/56/2 116/58/2 15/59/2 14/57/2
f 116/58/2 120/5/2 16/8/2 15/59/2
f 5/19/1 1/18/1 24/60/1 16/61/1
f 16/61/1 24/60/1 23/62/1 15/63/1
f 15/63/1 23/62/1 22/64/1 14/65/1
f 14/65/1 22/64/1 21/66/1 13/67/1
f 13/67/1 21/66/1 20/68/1 12/69/1
f 12/69/1 20/68/1 19/70/1 11/71/1
f 11/71/1 19/70/1 18/72/1 10/73/1
f 10/73/1 18/72/1 17/2/1 9/1/1
f 26/74/2 25/75/2 117/76/2 113/77/2
f 113/77/2 117/76/2 118/78/2 114/79/2
f 114/79/2 118/78/2 119/80/2 115/81/2
f 115/81/2 119/80/2 120/5/2 116/58/2
f 27/82/2 26/74/2 113/77/2 109/83/2
f 109/83/2 113/77/2 114/79/2 110/84/2
f 110/84/2 114/79/2 115/81/2 111/85/2
f 111/85/2 115/81/2 116/58/2 112/56/2
f 28/86/2 27/82/2 109/83/2 105/87/2
f 105/87/2 109/83/2 110/84/2 106/88/2
f 106/88/2 110/84/2 111/85/2 107/89/2
f 107/89/2 111/85/2 112/56/2 108/54/2
f 29/90/2 28/86/2 105/87/2 101/91/2
f 101/91/2 105/87/2 106/88/2 102/92/2
f 102/92/2 106/88/2 107/89/2 103/93/2
f 103/93/2 107/89/2 108/54/2 104/52/2
f 30/94/2 29/90/2 101/91/2 97/95/2
f 97/95/2 101/91/2 102/92/2 98/96/2
f 98/96/2 102/92/2 103/93/2 99/97/2
f 99/97/2 103/93/2 104/52/2 100/50/2
f 31/98/2 30/94/2 97/95/2 93/99/2
f 93/99/2 97/95/2 98/96/2 94/100/2
f 94/100/2 98/96/2 99/97/2 95/101/2
f 95/101/2 99/97/2 100/50/2 96/48/2
f 32/102/2 31/98/2 93/99/2 89/103/2
f 89/103/2 93/99/2 94/100/2 90/104/2
f 90/104/2 94/100/2 95/101/2 91/105/2
f 91/105/2 95/101/2 96/48/2 92/45/2
f 8/106/2 32/102/2 89/103/2 49/107/2
f 49/107/2 89/103/2 90/104/2 50/108/2
f 50/108/2 90/104/2 91/105/2 51/109/2
f 51/109/2 91/105/2 92/45/2 52/44/2
f 18/72/4 84/110/4 88/111/4 17/2/4
f 84/110/4 83/112/4 87/113/4 88/111/4
f 83/112/4 82/114/4 86/115/4 87/113/4
f 82/114/4 81/35/4 85/13/4 86/115/4
f 19/70/4 80/116/4 84/110/4 18/72/4
f 80/116/4 79/117/4 83/112/4 84/110/4
f 79/117/4 78/118/4 82/114/4 83/112/4
f 78/118/4 77/33/4 81/35/4 82/114/4
f 20/68/4 76/119/4 80/116/4 19/70/4
f 76/119/4 75/120/4 79/117/4 80/116/4
f 75/120/4 74/121/4 78/118/4 79/117/4
f 74/121/4 73/31/4 77/33/4 78/118/4
f 21/66/4 72/122/4 76/119/4 20/68/4
f 72/122/4 71/123/4 75/120/4 76/119/4
f 71/123/4 70/124/4 74/121/4 75/120/4
f 70/124/4 69/29/4 73/31/4 74/121/4
f 22/64/4 68/125/4 72/122/4 21/66/4
f 68/125/4 67/126/4 71/123/4 72/122/4
f 67/126/4 66/127/4 70/124/4 71/123/4
f 66/127/4 65/27/4 69/29/4 70/124/4
f 23/62/4 64/128/4 68/125/4 22/64/4
f 64/128/4 63/129/4 67/126/4 68/125/4
f 63/129/4 62/130/4 66/127/4 67/126/4
f 62/130/4 61/25/4 65/27/4 66/127/4
f 24/60/4 60/131/4 64/128/4 23/62/4
f 60/131/4 59/132/4 63/129/4 64/128/4
f 59/132/4 58/133/4 62/130/4 63/129/4
f 58/133/4 57/23/4 61/25/4 62/130/4
f 1/18/4 41/17/4 60/131/4 24/60/4
f 41/17/4 42/134/4 59/132/4 60/131/4
f 42/134/4 43/135/4 58/133/4 59/132/4
f 43/135/4 44/20/4 57/23/4 58/133/4
f 6/36/6 2/21/6 44/20/6 56/136/6
f 56/136/6 44/20/6 43/135/6 55/137/6
f 55/137/6 43/135/6 42/134/6 54/138/6
f 54/138/6 42/134/6 41/17/6 53/16/6
f 7/4/5 3/3/5 48/139/5 52/140/5
f 52/140/5 48/139/5 47/141/5 51/142/5
f 51/142/5 47/141/5 46/143/5 50/144/5
f 50/144/5 46/143/5 45/14/5 49/15/5
f 17/2/4 88/111/4 48/139/4 3/3/4
f 88/111/4 87/113/4 47/141/4 48/139/4
f 87/113/4 86/115/4 46/143/4 47/141/4
f 86/115/4 85/13/4 45/14/4 46/143/4
f 25/75/2 6/145/2 56/146/2 117/76/2
f 117/76/2 56/146/2 55/147/2 118/78/2
f 118/78/2 55/147/2 54/148/2 119/80/2
f 119/80/2 54/148/2 53/6/2 120/5/2
